<svg width="54" height="54" xmlns="http://www.w3.org/2000/svg"><g fill="#526173" stroke="#526173" stroke-width=".31" fill-rule="evenodd"><path d="M25.725 8.5a9 9 0 0 0-9 9 9 9 0 0 0 9 9 9 9 0 0 0 9-9 9 9 0 0 0-9-9m0 3c3.309 0 6 2.691 6 6s-2.691 6-6 6c-3.31 0-6-2.691-6-6s2.69-6 6-6m11.176 24.475l2.846-.95-2-6-.023.009V29h-26v.204l-3.949 14.81 2.898.774L14.084 32h21.493z"/><path d="M30.725 40.5h15.5v-3h-15.5zm0 5h15.5v-3h-15.5z"/><path d="M4 1v3h46v46h3V1z"/><path d="M4 4H1v49h49v-3H4z"/></g></svg>