<svg width="44" height="56" xmlns="http://www.w3.org/2000/svg"><g fill="#526173" stroke="#526173" stroke-width="1.31" fill-rule="evenodd"><path d="M30.893 32.356l-.393-1.681c6.312-1.511 10.722-7.157 10.722-13.729 0-7.779-6.257-14.108-13.946-14.108-7.69 0-13.946 6.33-13.946 14.108 0 1.685.29 3.333.862 4.897l-1.6.6a15.938 15.938 0 0 1-.97-5.497c0-8.731 7.022-15.835 15.654-15.835 8.63 0 15.653 7.104 15.653 15.835 0 7.377-4.95 13.714-12.036 15.41"/><path d="M10.199 42.282l-6.403-3.845 20.706-19.853 2.587 1.512-5.101 29.537-6.097-3.896-4.479 7.014-5.34-3.307 4.127-7.162zm18.777-23.078l-4.725-2.76L1.001 38.74l6.956 4.28-4.233 6.996 8.253 5.112 4.248-7.02 7.015 4.318 5.736-33.221z"/></g></svg>