<svg width="40" height="51" xmlns="http://www.w3.org/2000/svg"><g fill="#526173" fill-rule="evenodd"><path d="M14.902 14.946h14.26V11.77h-14.26zm-9.412 0h7.632V11.77H5.49zm9.412 7.062h14.26V18.83h-14.26zm-9.412 0h7.632V18.83H5.49zm9.412 7.846h14.26v-3.177h-14.26zm-9.412 0h7.632v-3.177H5.49z"/><path d="M3.164 0v3.17H.004L0 45.133h.004v.003h2.442v5.589h33.812v-3.178H5.622v-2.413h21.14l7.586-7.963V6.365h1.91v41.177h3.307l.006-44.355h-5.223V0H3.164zm.016 3.178h27.862V33.17h-5.474v-.01H22.39v8.795H3.181V3.178zm22.388 33.17h5.474l-5.474 5.608v-5.607z"/></g></svg>